<?xml version="1.0" encoding="UTF-8"?>
<svg id="English_logo_-_no_slogan" data-name="English logo - no slogan" xmlns="http://www.w3.org/2000/svg" xmlns:xlink="http://www.w3.org/1999/xlink" viewBox="0 0 350 120">
  <defs>
    <style>
      .cls-1 {
        fill: url(#linear-gradient-2);
      }

      .cls-2 {
        fill: #46166c;
        font-family: IBMPlexSansArabic-Bold, 'IBM Plex Sans Arabic';
        font-size: 32px;
        font-weight: 700;
      }

      .cls-3 {
        fill: url(#linear-gradient-4);
      }

      .cls-4 {
        fill: url(#linear-gradient-3);
      }

      .cls-5 {
        fill: url(#linear-gradient-5);
      }

      .cls-6 {
        fill: url(#linear-gradient-7);
      }

      .cls-7 {
        fill: url(#linear-gradient-6);
      }

      .cls-8 {
        fill: url(#linear-gradient);
        fill-rule: evenodd;
      }
    </style>
    <linearGradient id="linear-gradient" x1="44.11" y1="28.41" x2="76.96" y2="79.47" gradientUnits="userSpaceOnUse">
      <stop offset="0" stop-color="#46166c"/>
      <stop offset="1" stop-color="#353385"/>
    </linearGradient>
    <linearGradient id="linear-gradient-2" x1="46.56" y1="130.64" x2="93.71" y2="50.81" xlink:href="#linear-gradient"/>
    <linearGradient id="linear-gradient-3" x1="52.45" y1="134.12" x2="99.6" y2="54.29" xlink:href="#linear-gradient"/>
    <linearGradient id="linear-gradient-4" x1="56.61" y1="136.58" x2="103.75" y2="56.75" xlink:href="#linear-gradient"/>
    <linearGradient id="linear-gradient-5" x1="27.16" y1="119.19" x2="74.31" y2="39.36" xlink:href="#linear-gradient"/>
    <linearGradient id="linear-gradient-6" x1="21.98" y1="116.13" x2="69.13" y2="36.3" xlink:href="#linear-gradient"/>
    <linearGradient id="linear-gradient-7" x1="19.84" y1="114.86" x2="66.99" y2="35.03" xlink:href="#linear-gradient"/>
  </defs>
  <g id="Logo_icon" data-name="Logo icon">
    <path id="Circle_2" data-name="Circle 2" class="cls-8" d="M54.8,28.21c23.62,0,42.77,19.15,42.77,42.77,0,3.21-.36,6.33-1.04,9.34,2.71-5.61,4.23-11.91,4.23-18.56,0-23.62-19.15-42.77-42.77-42.77-20.41,0-37.47,14.3-41.73,33.43,6.91-14.32,21.57-24.21,38.54-24.21Z"/>
    <g id="Circle_1" data-name="Circle 1">
      <path class="cls-1" d="M78.1,86.6c-1.3,1.24-9.03,3.14-11.13,2.73-2.06-.4-2.01-.44,2.42-1.78,4.61-1.39,9.77-1.96,8.71-.95Z"/>
      <path class="cls-4" d="M79.03,87.63c5.65-1.66,6.24-1.76,6.85-1.16.54.55-9.03,3.73-11.34,3.77-2.86.06-1.11-.95,4.49-2.61Z"/>
      <path class="cls-3" d="M82.74,89.06c3.1-.94,6.36-1.74,7.26-1.76,2.54-.06,2.58,1.06.05,1.53-1.25.24-4.57,1.2-7.37,2.14-3.35,1.13-5.3,1.52-5.69,1.13-.89-.89-.38-1.16,5.75-3.04Z"/>
      <path class="cls-5" d="M96.11,91.81c-.37.36-19.61,8.2-26.1,10.63-4.27,1.59-5.63,1.8-11.76,1.86-6.38.06-10.48-.54-15.44-2.45-.12-.08-.24-.15-.35-.23-15.63-6.08-26.8-21.08-27.25-38.75-.02-.37-.02-.74-.02-1.12,0-23.26,18.57-42.19,41.7-42.76.35-.01.71-.01,1.07-.01,7.9,0,15.29,2.15,21.63,5.88-3.93-1.19-8.09-1.83-12.41-1.83-20.58,0-39.69,13.05-42.3,33.65,0,.04-.01.08-.01.12-.02.13-.03.27-.05.41-.05.67-.08,1.39-.09,2.14-.02.73-.02,1.47,0,2.2.07,2.47.35,4.98.87,7.48,1.49,7.27,4.75,13.73,9.24,19.02.07.09.15.18.24.27.29.35.6.7.91,1.04l.47.52h.02s3.76-1.7,3.76-1.7c5.56-2.49,7.7-2.54,14.54-.34,3.54,1.14,8.77,2.23,13.13,2.74,3.99.47,7.53,1.02,7.88,1.24,1.09.67-1.18,2.51-3.98,3.22-1.45.36-4.73.66-7.3.66-6.56,0-5.25.56,1.65.71,4.69.09,6.21-.11,8.4-1.13,4.92-2.29,15.51-5.61,17.93-5.61,2.15,0,4.41,1.34,3.62,2.14Z"/>
    </g>
    <g id="Person">
      <path class="cls-7" d="M56.01,85.39c.69.69,9.61-6.77,12.72-10.65,5.53-6.89,7.53-12.17,7.53-19.93,0-5.23-2.25-12.61-5.06-16.59-.93-1.32-1.52-1.87-1.3-1.23.22.65.56,3.23.75,5.74.67,8.69-3.07,18.7-9.51,25.46l-3.04,3.19,2.15-3.98c1.18-2.19,2.15-4.26,2.15-4.62,0-1.14-5.27-6.1-9.14-8.6-3.71-2.4-12.97-5.78-14.47-5.28-.42.14.71,1.21,2.53,2.38,5.07,3.25,10.37,9.33,13.31,15.25,2.28,4.59,2.55,5.61,2.57,9.51.01,2.41-.33,5.41-.76,6.67-.43,1.27-.62,2.46-.43,2.65Z"/>
      <circle class="cls-6" cx="60.07" cy="46.74" r="6.45"/>
    </g>
  </g>
  <g>
    <text class="cls-2" transform="translate(117.21 71.97)"><tspan x="0" y="0">FIBROAWARE</tspan></text>
    <text class="cls-2" transform="translate(117.21 71.97)"><tspan x="0" y="0">FIBROAWARE</tspan></text>
    <text class="cls-2" transform="translate(117.21 71.97)"><tspan x="0" y="0">FIBROAWARE</tspan></text>
  </g>
</svg>