<?xml version="1.0" encoding="UTF-8"?>
<svg id="Arabic_logo_-_no_slogan" data-name="Arabic logo - no slogan" xmlns="http://www.w3.org/2000/svg" xmlns:xlink="http://www.w3.org/1999/xlink" viewBox="0 0 300 120">
  <defs>
    <style>
      .cls-1 {
        fill: url(#linear-gradient-2);
      }

      .cls-2 {
        fill: url(#linear-gradient-4);
      }

      .cls-3 {
        fill: url(#linear-gradient-3);
      }

      .cls-4 {
        fill: url(#linear-gradient-5);
      }

      .cls-5 {
        fill: none;
        stroke: #46166c;
        stroke-miterlimit: 10;
        stroke-width: 4.7px;
      }

      .cls-6 {
        fill: #46166c;
      }

      .cls-7 {
        fill: url(#linear-gradient-7);
      }

      .cls-8 {
        fill: url(#linear-gradient-6);
      }

      .cls-9 {
        fill: url(#linear-gradient);
        fill-rule: evenodd;
      }
    </style>
    <linearGradient id="linear-gradient" x1="-2523.78" y1="27.91" x2="-2490.93" y2="78.97" gradientTransform="translate(-2272.46) rotate(-180) scale(1 -1)" gradientUnits="userSpaceOnUse">
      <stop offset="0" stop-color="#46166c"/>
      <stop offset="1" stop-color="#353385"/>
    </linearGradient>
    <linearGradient id="linear-gradient-2" x1="-2521.33" y1="130.14" x2="-2474.18" y2="50.31" xlink:href="#linear-gradient"/>
    <linearGradient id="linear-gradient-3" x1="-2515.44" y1="133.62" x2="-2468.29" y2="53.79" xlink:href="#linear-gradient"/>
    <linearGradient id="linear-gradient-4" x1="-2511.28" y1="136.07" x2="-2464.13" y2="56.24" xlink:href="#linear-gradient"/>
    <linearGradient id="linear-gradient-5" x1="-2540.73" y1="118.68" x2="-2493.58" y2="38.85" xlink:href="#linear-gradient"/>
    <linearGradient id="linear-gradient-6" x1="-2545.91" y1="115.62" x2="-2498.76" y2="35.79" xlink:href="#linear-gradient"/>
    <linearGradient id="linear-gradient-7" x1="-2548.05" y1="114.36" x2="-2500.9" y2="34.53" xlink:href="#linear-gradient"/>
  </defs>
  <g id="Text">
    <g>
      <path class="cls-6" d="M19.76,74.88h1.28c1.94,0,3.37-.39,4.27-1.18.91-.79,1.35-2.1,1.33-3.94,0-.49-.03-1.01-.1-1.55s-.15-1.12-.26-1.74l-.67-4.26,3.49-.54.48,2.98c.08.47.16.92.21,1.34s.1.83.14,1.22h2.94v3.84l-.96.96h-1.98c-.36,2.37-1.3,4.24-2.8,5.62s-3.53,2.06-6.06,2.06h-1.31v-4.8Z"/>
      <path class="cls-6" d="M31.92,68.17l.96-.96h.93c.77,0,1.4-.03,1.9-.1.5-.06.91-.18,1.22-.34.31-.16.52-.36.64-.61.12-.25.18-.55.18-.91,0-.32-.03-.73-.08-1.23-.05-.5-.16-1.16-.3-1.97l-.54-2.98,3.49-.58.48,2.98c.11.58.19,1.22.26,1.92.06.7.1,1.32.1,1.86,0,2.33-.57,4.03-1.71,5.12-1.14,1.09-3.01,1.63-5.62,1.63h-1.89v-3.84ZM35.03,78.88c-.55,0-1.01-.17-1.36-.51-.35-.34-.53-.89-.53-1.63s.18-1.29.53-1.63c.35-.34.8-.51,1.36-.51h.64c.55,0,1.01.17,1.36.51.35.34.53.89.53,1.63s-.18,1.29-.53,1.63c-.35.34-.81.51-1.36.51h-.64ZM40.08,78.88c-.56,0-1.01-.17-1.36-.51-.35-.34-.53-.89-.53-1.63s.18-1.29.53-1.63c.35-.34.81-.51,1.36-.51h.64c.55,0,1.01.17,1.36.51.35.34.53.89.53,1.63s-.18,1.29-.53,1.63c-.35.34-.81.51-1.36.51h-.64Z"/>
      <path class="cls-6" d="M44.85,74.88h2.05c2.79,0,4.84-.49,6.14-1.46s1.95-2.22,1.95-3.76v-.83h-.19c-.32,1.09-.84,1.89-1.55,2.4-.71.51-1.62.77-2.7.77-1.73,0-3.08-.51-4.05-1.52-.97-1.01-1.46-2.43-1.46-4.24,0-1.11.17-2.14.5-3.09.33-.95.79-1.77,1.38-2.46s1.28-1.24,2.08-1.63c.8-.39,1.67-.59,2.61-.59,1.04,0,1.98.22,2.8.66s1.51,1.07,2.08,1.89c.57.82,1,1.83,1.3,3.02s.45,2.54.45,4.03c0,3.65-.93,6.5-2.8,8.54-1.87,2.05-4.6,3.07-8.21,3.07h-2.37v-4.8ZM51.54,67.21c.83,0,1.53-.04,2.08-.11.55-.07,1-.2,1.34-.37-.09-1.04-.48-1.88-1.18-2.51-.7-.63-1.57-.94-2.59-.94-.83,0-1.53.22-2.1.66-.57.44-.85,1-.85,1.68,0,.58.23.99.7,1.23.47.25,1.11.37,1.92.37h.67Z"/>
      <path class="cls-6" d="M60.21,47.08h1.34l.03-.16c-.43-.47-.64-1.03-.64-1.7,0-.9.32-1.64.98-2.22.65-.59,1.49-.88,2.51-.88.62,0,1.21.13,1.79.38s1.08.61,1.5,1.06l-1.54,2.14c-.51-.51-1.1-.77-1.76-.77-.36,0-.66.09-.88.26-.22.17-.34.37-.34.61,0,.7.74,1.06,2.21,1.06h2.37v2.82h-7.58v-2.59ZM62.1,52.23h3.84v19.78h-3.84v-19.78Z"/>
      <path class="cls-6" d="M78.74,74.88h2.05c2.79,0,4.84-.49,6.14-1.46,1.3-.97,1.95-2.22,1.95-3.76v-.83h-.19c-.32,1.09-.84,1.89-1.55,2.4-.71.51-1.62.77-2.7.77-1.73,0-3.08-.51-4.05-1.52-.97-1.01-1.46-2.43-1.46-4.24,0-1.11.16-2.14.5-3.09.33-.95.79-1.77,1.38-2.46.59-.69,1.28-1.24,2.08-1.63.8-.39,1.67-.59,2.61-.59,1.04,0,1.98.22,2.8.66.82.44,1.51,1.07,2.08,1.89.56.82,1,1.83,1.29,3.02s.45,2.54.45,4.03c0,3.65-.93,6.5-2.8,8.54-1.87,2.05-4.6,3.07-8.21,3.07h-2.37v-4.8ZM85.43,67.21c.83,0,1.52-.04,2.08-.11.55-.07,1-.2,1.35-.37-.09-1.04-.48-1.88-1.19-2.51-.7-.63-1.57-.94-2.59-.94-.83,0-1.53.22-2.1.66-.56.44-.85,1-.85,1.68,0,.58.23.99.7,1.23.47.25,1.11.37,1.92.37h.67Z"/>
      <path class="cls-6" d="M92.6,74.88h1.28c1.94,0,3.37-.39,4.27-1.18.91-.79,1.35-2.1,1.33-3.94,0-.49-.03-1.01-.1-1.55s-.15-1.12-.26-1.74l-.67-4.26,3.49-.54.35,2.34,5.28-.86v-2.75h3.52v4.45c0,.96.19,1.59.58,1.9.38.31,1.04.51,1.98.51l.96.03v3.77s-.89.91-.89.91h-.49c-2.03.08-2.81-.27-3.7-.92-.9-.65-1.48-1.71-1.76-3.18l-4.83.8c.02.17.03.34.03.51v.45c0,1.54-.19,2.92-.58,4.16-.38,1.24-.96,2.3-1.73,3.18-.77.88-1.72,1.56-2.85,2.03-1.13.47-2.43.7-3.9.7h-1.31v-4.8ZM108.98,78.88c-.55,0-1.01-.17-1.36-.51-.35-.34-.53-.89-.53-1.63s.18-1.29.53-1.63c.35-.34.8-.51,1.36-.51h.64c.55,0,1.01.17,1.36.51.35.34.53.89.53,1.63s-.18,1.29-.53,1.63c-.35.34-.8.51-1.36.51h-.64Z"/>
      <path class="cls-6" d="M151.95,68.17l.96-.99h.96c1.71,0,2.56-.71,2.56-2.21v-4.58h3.52v4.58c0,1.49.75,2.24,2.24,2.24h1.28v3.84l-.96.96c-1.71,0-3-.35-3.89-1.04s-1.48-1.79-1.78-3.28h-.19c-.3,1.49-.81,2.59-1.54,3.28s-.71,1.04-3.17.89v-3.69ZM155.34,78.88c-.55,0-1.01-.17-1.36-.51-.35-.34-.53-.89-.53-1.63s.18-1.29.53-1.63c.35-.34.8-.51,1.36-.51h.64c.55,0,1.01.17,1.36.51.35.34.53.89.53,1.63s-.18,1.29-.53,1.63c-.35.34-.8.51-1.36.51h-.64ZM160.4,78.88c-.56,0-1.01-.17-1.36-.51-.35-.34-.53-.89-.53-1.63s.18-1.29.53-1.63c.35-.34.8-.51,1.36-.51h.64c.55,0,1.01.17,1.36.51.35.34.53.89.53,1.63s-.18,1.29-.53,1.63c-.35.34-.81.51-1.36.51h-.64Z"/>
      <path class="cls-6" d="M162.51,68.17l.96-.96h6.21c.72,0,1.39-.04,2-.13.61-.08,1.12-.23,1.54-.45.42-.21.74-.5.97-.86.23-.36.35-.82.35-1.38v-1.47h-.19c-.62,1.69-2.04,2.53-4.26,2.53-1.73,0-3.08-.45-4.05-1.36-.97-.91-1.46-2.16-1.46-3.76,0-1.11.17-2.14.5-3.09s.79-1.77,1.38-2.46c.59-.69,1.28-1.24,2.08-1.63.8-.39,1.67-.59,2.61-.59,2.09,0,3.72.88,4.88,2.62,1.16,1.75,1.74,4.18,1.74,7.3,0,1.94-.17,3.53-.51,4.77s-.85,2.21-1.52,2.91c-.67.7-1.52,1.19-2.53,1.46-1.01.27-2.19.4-3.54.4h-7.17v-3.84ZM171.09,61.29c.81,0,1.49-.04,2.05-.11.55-.07,1-.2,1.34-.37-.13-1.04-.54-1.88-1.23-2.51-.69-.63-1.53-.94-2.51-.94-.83,0-1.53.22-2.1.66-.57.44-.85,1-.85,1.68,0,.58.23.99.7,1.23s1.11.37,1.92.37h.67ZM170.83,49.99c-.55,0-1.01-.17-1.36-.51-.35-.34-.53-.88-.53-1.63s.18-1.29.53-1.63c.35-.34.8-.51,1.36-.51h.64c.55,0,1.01.17,1.36.51.35.34.53.89.53,1.63s-.18,1.29-.53,1.63c-.35.34-.8.51-1.36.51h-.64Z"/>
      <path class="cls-5" d="M112.1,69.61l41.19-.09"/>
    </g>
    <g>
      <path class="cls-6" d="M19.76,74.88h1.28c1.94,0,3.37-.39,4.27-1.18.91-.79,1.35-2.1,1.33-3.94,0-.49-.03-1.01-.1-1.55s-.15-1.12-.26-1.74l-.67-4.26,3.49-.54.48,2.98c.08.47.16.92.21,1.34s.1.83.14,1.22h2.94v3.84l-.96.96h-1.98c-.36,2.37-1.3,4.24-2.8,5.62s-3.53,2.06-6.06,2.06h-1.31v-4.8Z"/>
      <path class="cls-6" d="M31.92,68.17l.96-.96h.93c.77,0,1.4-.03,1.9-.1.5-.06.91-.18,1.22-.34.31-.16.52-.36.64-.61.12-.25.18-.55.18-.91,0-.32-.03-.73-.08-1.23-.05-.5-.16-1.16-.3-1.97l-.54-2.98,3.49-.58.48,2.98c.11.58.19,1.22.26,1.92.06.7.1,1.32.1,1.86,0,2.33-.57,4.03-1.71,5.12-1.14,1.09-3.01,1.63-5.62,1.63h-1.89v-3.84ZM35.03,78.88c-.55,0-1.01-.17-1.36-.51-.35-.34-.53-.89-.53-1.63s.18-1.29.53-1.63c.35-.34.8-.51,1.36-.51h.64c.55,0,1.01.17,1.36.51.35.34.53.89.53,1.63s-.18,1.29-.53,1.63c-.35.34-.81.51-1.36.51h-.64ZM40.08,78.88c-.56,0-1.01-.17-1.36-.51-.35-.34-.53-.89-.53-1.63s.18-1.29.53-1.63c.35-.34.81-.51,1.36-.51h.64c.55,0,1.01.17,1.36.51.35.34.53.89.53,1.63s-.18,1.29-.53,1.63c-.35.34-.81.51-1.36.51h-.64Z"/>
      <path class="cls-6" d="M44.85,74.88h2.05c2.79,0,4.84-.49,6.14-1.46s1.95-2.22,1.95-3.76v-.83h-.19c-.32,1.09-.84,1.89-1.55,2.4-.71.51-1.62.77-2.7.77-1.73,0-3.08-.51-4.05-1.52-.97-1.01-1.46-2.43-1.46-4.24,0-1.11.17-2.14.5-3.09.33-.95.79-1.77,1.38-2.46s1.28-1.24,2.08-1.63c.8-.39,1.67-.59,2.61-.59,1.04,0,1.98.22,2.8.66s1.51,1.07,2.08,1.89c.57.82,1,1.83,1.3,3.02s.45,2.54.45,4.03c0,3.65-.93,6.5-2.8,8.54-1.87,2.05-4.6,3.07-8.21,3.07h-2.37v-4.8ZM51.54,67.21c.83,0,1.53-.04,2.08-.11.55-.07,1-.2,1.34-.37-.09-1.04-.48-1.88-1.18-2.51-.7-.63-1.57-.94-2.59-.94-.83,0-1.53.22-2.1.66-.57.44-.85,1-.85,1.68,0,.58.23.99.7,1.23.47.25,1.11.37,1.92.37h.67Z"/>
      <path class="cls-6" d="M60.21,47.08h1.34l.03-.16c-.43-.47-.64-1.03-.64-1.7,0-.9.32-1.64.98-2.22.65-.59,1.49-.88,2.51-.88.62,0,1.21.13,1.79.38s1.08.61,1.5,1.06l-1.54,2.14c-.51-.51-1.1-.77-1.76-.77-.36,0-.66.09-.88.26-.22.17-.34.37-.34.61,0,.7.74,1.06,2.21,1.06h2.37v2.82h-7.58v-2.59ZM62.1,52.23h3.84v19.78h-3.84v-19.78Z"/>
      <path class="cls-6" d="M78.74,74.88h2.05c2.79,0,4.84-.49,6.14-1.46,1.3-.97,1.95-2.22,1.95-3.76v-.83h-.19c-.32,1.09-.84,1.89-1.55,2.4-.71.51-1.62.77-2.7.77-1.73,0-3.08-.51-4.05-1.52-.97-1.01-1.46-2.43-1.46-4.24,0-1.11.16-2.14.5-3.09.33-.95.79-1.77,1.38-2.46.59-.69,1.28-1.24,2.08-1.63.8-.39,1.67-.59,2.61-.59,1.04,0,1.98.22,2.8.66.82.44,1.51,1.07,2.08,1.89.56.82,1,1.83,1.29,3.02s.45,2.54.45,4.03c0,3.65-.93,6.5-2.8,8.54-1.87,2.05-4.6,3.07-8.21,3.07h-2.37v-4.8ZM85.43,67.21c.83,0,1.52-.04,2.08-.11.55-.07,1-.2,1.35-.37-.09-1.04-.48-1.88-1.19-2.51-.7-.63-1.57-.94-2.59-.94-.83,0-1.53.22-2.1.66-.56.44-.85,1-.85,1.68,0,.58.23.99.7,1.23.47.25,1.11.37,1.92.37h.67Z"/>
      <path class="cls-6" d="M92.6,74.88h1.28c1.94,0,3.37-.39,4.27-1.18.91-.79,1.35-2.1,1.33-3.94,0-.49-.03-1.01-.1-1.55s-.15-1.12-.26-1.74l-.67-4.26,3.49-.54.35,2.34,5.28-.86v-2.75h3.52v4.45c0,.96.19,1.59.58,1.9.38.31,1.04.51,1.98.51l.96.03v3.77s-.89.91-.89.91h-.49c-2.03.08-2.81-.27-3.7-.92-.9-.65-1.48-1.71-1.76-3.18l-4.83.8c.02.17.03.34.03.51v.45c0,1.54-.19,2.92-.58,4.16-.38,1.24-.96,2.3-1.73,3.18-.77.88-1.72,1.56-2.85,2.03-1.13.47-2.43.7-3.9.7h-1.31v-4.8ZM108.98,78.88c-.55,0-1.01-.17-1.36-.51-.35-.34-.53-.89-.53-1.63s.18-1.29.53-1.63c.35-.34.8-.51,1.36-.51h.64c.55,0,1.01.17,1.36.51.35.34.53.89.53,1.63s-.18,1.29-.53,1.63c-.35.34-.8.51-1.36.51h-.64Z"/>
      <path class="cls-6" d="M151.95,68.17l.96-.99h.96c1.71,0,2.56-.71,2.56-2.21v-4.58h3.52v4.58c0,1.49.75,2.24,2.24,2.24h1.28v3.84l-.96.96c-1.71,0-3-.35-3.89-1.04s-1.48-1.79-1.78-3.28h-.19c-.3,1.49-.81,2.59-1.54,3.28s-.71,1.04-3.17.89v-3.69ZM155.34,78.88c-.55,0-1.01-.17-1.36-.51-.35-.34-.53-.89-.53-1.63s.18-1.29.53-1.63c.35-.34.8-.51,1.36-.51h.64c.55,0,1.01.17,1.36.51.35.34.53.89.53,1.63s-.18,1.29-.53,1.63c-.35.34-.8.51-1.36.51h-.64ZM160.4,78.88c-.56,0-1.01-.17-1.36-.51-.35-.34-.53-.89-.53-1.63s.18-1.29.53-1.63c.35-.34.8-.51,1.36-.51h.64c.55,0,1.01.17,1.36.51.35.34.53.89.53,1.63s-.18,1.29-.53,1.63c-.35.34-.81.51-1.36.51h-.64Z"/>
      <path class="cls-6" d="M162.51,68.17l.96-.96h6.21c.72,0,1.39-.04,2-.13.61-.08,1.12-.23,1.54-.45.42-.21.74-.5.97-.86.23-.36.35-.82.35-1.38v-1.47h-.19c-.62,1.69-2.04,2.53-4.26,2.53-1.73,0-3.08-.45-4.05-1.36-.97-.91-1.46-2.16-1.46-3.76,0-1.11.17-2.14.5-3.09s.79-1.77,1.38-2.46c.59-.69,1.28-1.24,2.08-1.63.8-.39,1.67-.59,2.61-.59,2.09,0,3.72.88,4.88,2.62,1.16,1.75,1.74,4.18,1.74,7.3,0,1.94-.17,3.53-.51,4.77s-.85,2.21-1.52,2.91c-.67.7-1.52,1.19-2.53,1.46-1.01.27-2.19.4-3.54.4h-7.17v-3.84ZM171.09,61.29c.81,0,1.49-.04,2.05-.11.55-.07,1-.2,1.34-.37-.13-1.04-.54-1.88-1.23-2.51-.69-.63-1.53-.94-2.51-.94-.83,0-1.53.22-2.1.66-.57.44-.85,1-.85,1.68,0,.58.23.99.7,1.23s1.11.37,1.92.37h.67ZM170.83,49.99c-.55,0-1.01-.17-1.36-.51-.35-.34-.53-.88-.53-1.63s.18-1.29.53-1.63c.35-.34.8-.51,1.36-.51h.64c.55,0,1.01.17,1.36.51.35.34.53.89.53,1.63s-.18,1.29-.53,1.63c-.35.34-.8.51-1.36.51h-.64Z"/>
      <path class="cls-5" d="M112.1,69.61l41.19-.09"/>
    </g>
    <g>
      <path class="cls-6" d="M19.76,74.88h1.28c1.94,0,3.37-.39,4.27-1.18.91-.79,1.35-2.1,1.33-3.94,0-.49-.03-1.01-.1-1.55s-.15-1.12-.26-1.74l-.67-4.26,3.49-.54.48,2.98c.08.47.16.92.21,1.34s.1.83.14,1.22h2.94v3.84l-.96.96h-1.98c-.36,2.37-1.3,4.24-2.8,5.62s-3.53,2.06-6.06,2.06h-1.31v-4.8Z"/>
      <path class="cls-6" d="M31.92,68.17l.96-.96h.93c.77,0,1.4-.03,1.9-.1.5-.06.91-.18,1.22-.34.31-.16.52-.36.64-.61.12-.25.18-.55.18-.91,0-.32-.03-.73-.08-1.23-.05-.5-.16-1.16-.3-1.97l-.54-2.98,3.49-.58.48,2.98c.11.58.19,1.22.26,1.92.06.7.1,1.32.1,1.86,0,2.33-.57,4.03-1.71,5.12-1.14,1.09-3.01,1.63-5.62,1.63h-1.89v-3.84ZM35.03,78.88c-.55,0-1.01-.17-1.36-.51-.35-.34-.53-.89-.53-1.63s.18-1.29.53-1.63c.35-.34.8-.51,1.36-.51h.64c.55,0,1.01.17,1.36.51.35.34.53.89.53,1.63s-.18,1.29-.53,1.63c-.35.34-.81.51-1.36.51h-.64ZM40.08,78.88c-.56,0-1.01-.17-1.36-.51-.35-.34-.53-.89-.53-1.63s.18-1.29.53-1.63c.35-.34.81-.51,1.36-.51h.64c.55,0,1.01.17,1.36.51.35.34.53.89.53,1.63s-.18,1.29-.53,1.63c-.35.34-.81.51-1.36.51h-.64Z"/>
      <path class="cls-6" d="M44.85,74.88h2.05c2.79,0,4.84-.49,6.14-1.46s1.95-2.22,1.95-3.76v-.83h-.19c-.32,1.09-.84,1.89-1.55,2.4-.71.51-1.62.77-2.7.77-1.73,0-3.08-.51-4.05-1.52-.97-1.01-1.46-2.43-1.46-4.24,0-1.11.17-2.14.5-3.09.33-.95.79-1.77,1.38-2.46s1.28-1.24,2.08-1.63c.8-.39,1.67-.59,2.61-.59,1.04,0,1.98.22,2.8.66s1.51,1.07,2.08,1.89c.57.82,1,1.83,1.3,3.02s.45,2.54.45,4.03c0,3.65-.93,6.5-2.8,8.54-1.87,2.05-4.6,3.07-8.21,3.07h-2.37v-4.8ZM51.54,67.21c.83,0,1.53-.04,2.08-.11.55-.07,1-.2,1.34-.37-.09-1.04-.48-1.88-1.18-2.51-.7-.63-1.57-.94-2.59-.94-.83,0-1.53.22-2.1.66-.57.44-.85,1-.85,1.68,0,.58.23.99.7,1.23.47.25,1.11.37,1.92.37h.67Z"/>
      <path class="cls-6" d="M60.21,47.08h1.34l.03-.16c-.43-.47-.64-1.03-.64-1.7,0-.9.32-1.64.98-2.22.65-.59,1.49-.88,2.51-.88.62,0,1.21.13,1.79.38s1.08.61,1.5,1.06l-1.54,2.14c-.51-.51-1.1-.77-1.76-.77-.36,0-.66.09-.88.26-.22.17-.34.37-.34.61,0,.7.74,1.06,2.21,1.06h2.37v2.82h-7.58v-2.59ZM62.1,52.23h3.84v19.78h-3.84v-19.78Z"/>
      <path class="cls-6" d="M78.74,74.88h2.05c2.79,0,4.84-.49,6.14-1.46,1.3-.97,1.95-2.22,1.95-3.76v-.83h-.19c-.32,1.09-.84,1.89-1.55,2.4-.71.51-1.62.77-2.7.77-1.73,0-3.08-.51-4.05-1.52-.97-1.01-1.46-2.43-1.46-4.24,0-1.11.16-2.14.5-3.09.33-.95.79-1.77,1.38-2.46.59-.69,1.28-1.24,2.08-1.63.8-.39,1.67-.59,2.61-.59,1.04,0,1.98.22,2.8.66.82.44,1.51,1.07,2.08,1.89.56.82,1,1.83,1.29,3.02s.45,2.54.45,4.03c0,3.65-.93,6.5-2.8,8.54-1.87,2.05-4.6,3.07-8.21,3.07h-2.37v-4.8ZM85.43,67.21c.83,0,1.52-.04,2.08-.11.55-.07,1-.2,1.35-.37-.09-1.04-.48-1.88-1.19-2.51-.7-.63-1.57-.94-2.59-.94-.83,0-1.53.22-2.1.66-.56.44-.85,1-.85,1.68,0,.58.23.99.7,1.23.47.25,1.11.37,1.92.37h.67Z"/>
      <path class="cls-6" d="M92.6,74.88h1.28c1.94,0,3.37-.39,4.27-1.18.91-.79,1.35-2.1,1.33-3.94,0-.49-.03-1.01-.1-1.55s-.15-1.12-.26-1.74l-.67-4.26,3.49-.54.35,2.34,5.28-.86v-2.75h3.52v4.45c0,.96.19,1.59.58,1.9.38.31,1.04.51,1.98.51l.96.03v3.77s-.89.91-.89.91h-.49c-2.03.08-2.81-.27-3.7-.92-.9-.65-1.48-1.71-1.76-3.18l-4.83.8c.02.17.03.34.03.51v.45c0,1.54-.19,2.92-.58,4.16-.38,1.24-.96,2.3-1.73,3.18-.77.88-1.72,1.56-2.85,2.03-1.13.47-2.43.7-3.9.7h-1.31v-4.8ZM108.98,78.88c-.55,0-1.01-.17-1.36-.51-.35-.34-.53-.89-.53-1.63s.18-1.29.53-1.63c.35-.34.8-.51,1.36-.51h.64c.55,0,1.01.17,1.36.51.35.34.53.89.53,1.63s-.18,1.29-.53,1.63c-.35.34-.8.51-1.36.51h-.64Z"/>
      <path class="cls-6" d="M151.95,68.17l.96-.99h.96c1.71,0,2.56-.71,2.56-2.21v-4.58h3.52v4.58c0,1.49.75,2.24,2.24,2.24h1.28v3.84l-.96.96c-1.71,0-3-.35-3.89-1.04s-1.48-1.79-1.78-3.28h-.19c-.3,1.49-.81,2.59-1.54,3.28s-.71,1.04-3.17.89v-3.69ZM155.34,78.88c-.55,0-1.01-.17-1.36-.51-.35-.34-.53-.89-.53-1.63s.18-1.29.53-1.63c.35-.34.8-.51,1.36-.51h.64c.55,0,1.01.17,1.36.51.35.34.53.89.53,1.63s-.18,1.29-.53,1.63c-.35.34-.8.51-1.36.51h-.64ZM160.4,78.88c-.56,0-1.01-.17-1.36-.51-.35-.34-.53-.89-.53-1.63s.18-1.29.53-1.63c.35-.34.8-.51,1.36-.51h.64c.55,0,1.01.17,1.36.51.35.34.53.89.53,1.63s-.18,1.29-.53,1.63c-.35.34-.81.51-1.36.51h-.64Z"/>
      <path class="cls-6" d="M162.51,68.17l.96-.96h6.21c.72,0,1.39-.04,2-.13.61-.08,1.12-.23,1.54-.45.42-.21.74-.5.97-.86.23-.36.35-.82.35-1.38v-1.47h-.19c-.62,1.69-2.04,2.53-4.26,2.53-1.73,0-3.08-.45-4.05-1.36-.97-.91-1.46-2.16-1.46-3.76,0-1.11.17-2.14.5-3.09s.79-1.77,1.38-2.46c.59-.69,1.28-1.24,2.08-1.63.8-.39,1.67-.59,2.61-.59,2.09,0,3.72.88,4.88,2.62,1.16,1.75,1.74,4.18,1.74,7.3,0,1.94-.17,3.53-.51,4.77s-.85,2.21-1.52,2.91c-.67.7-1.52,1.19-2.53,1.46-1.01.27-2.19.4-3.54.4h-7.17v-3.84ZM171.09,61.29c.81,0,1.49-.04,2.05-.11.55-.07,1-.2,1.34-.37-.13-1.04-.54-1.88-1.23-2.51-.69-.63-1.53-.94-2.51-.94-.83,0-1.53.22-2.1.66-.57.44-.85,1-.85,1.68,0,.58.23.99.7,1.23s1.11.37,1.92.37h.67ZM170.83,49.99c-.55,0-1.01-.17-1.36-.51-.35-.34-.53-.88-.53-1.63s.18-1.29.53-1.63c.35-.34.8-.51,1.36-.51h.64c.55,0,1.01.17,1.36.51.35.34.53.89.53,1.63s-.18,1.29-.53,1.63c-.35.34-.8.51-1.36.51h-.64Z"/>
      <path class="cls-5" d="M112.1,69.61l41.19-.09"/>
    </g>
  </g>
  <g id="Logo_icon" data-name="Logo icon">
    <path id="Circle_2" data-name="Circle 2" class="cls-9" d="M240.62,27.7c-23.62,0-42.77,19.15-42.77,42.77,0,3.21.36,6.33,1.04,9.34-2.71-5.61-4.23-11.91-4.23-18.56,0-23.62,19.15-42.77,42.77-42.77,20.41,0,37.47,14.3,41.73,33.43-6.91-14.32-21.57-24.21-38.54-24.21Z"/>
    <g id="Circle_1" data-name="Circle 1">
      <path class="cls-1" d="M217.33,86.1c1.3,1.24,9.03,3.14,11.13,2.73,2.06-.4,2.01-.44-2.42-1.78-4.61-1.39-9.77-1.96-8.71-.95Z"/>
      <path class="cls-3" d="M216.4,87.13c-5.65-1.66-6.24-1.76-6.85-1.16-.54.55,9.03,3.73,11.34,3.77,2.86.06,1.11-.95-4.49-2.61Z"/>
      <path class="cls-2" d="M212.69,88.56c-3.1-.94-6.36-1.74-7.26-1.76-2.54-.06-2.58,1.06-.05,1.53,1.25.24,4.57,1.2,7.37,2.14,3.35,1.13,5.3,1.52,5.69,1.13.89-.89.38-1.16-5.75-3.04Z"/>
      <path class="cls-4" d="M199.32,91.31c.37.36,19.61,8.2,26.1,10.63,4.27,1.59,5.63,1.8,11.76,1.86,6.38.06,10.48-.54,15.44-2.45.12-.08.24-.15.35-.23,15.63-6.08,26.8-21.08,27.25-38.75.02-.37.02-.74.02-1.12,0-23.26-18.57-42.19-41.7-42.76-.35-.01-.71-.01-1.07-.01-7.9,0-15.29,2.15-21.63,5.88,3.93-1.19,8.09-1.83,12.41-1.83,20.58,0,39.69,13.05,42.3,33.65,0,.04.01.08.01.12.02.13.03.27.05.41.05.67.08,1.39.09,2.14.02.73.02,1.47,0,2.2-.07,2.47-.35,4.98-.87,7.48-1.49,7.27-4.75,13.73-9.24,19.02-.07.09-.15.18-.24.27-.29.35-.6.7-.91,1.04l-.47.52h-.02s-3.76-1.7-3.76-1.7c-5.56-2.49-7.7-2.54-14.54-.34-3.54,1.14-8.77,2.23-13.13,2.74-3.99.47-7.53,1.02-7.88,1.24-1.09.67,1.18,2.51,3.98,3.22,1.45.36,4.73.66,7.3.66,6.56,0,5.25.56-1.65.71-4.69.09-6.21-.11-8.4-1.13-4.92-2.29-15.51-5.61-17.93-5.61-2.15,0-4.41,1.34-3.62,2.14Z"/>
    </g>
    <g id="Person">
      <path class="cls-8" d="M239.41,84.88c-.69.69-9.61-6.77-12.72-10.65-5.53-6.89-7.53-12.17-7.53-19.93,0-5.23,2.25-12.61,5.06-16.59.93-1.32,1.52-1.87,1.3-1.23-.22.65-.56,3.23-.75,5.74-.67,8.69,3.07,18.7,9.51,25.46l3.04,3.19-2.15-3.98c-1.18-2.19-2.15-4.26-2.15-4.62,0-1.14,5.27-6.1,9.14-8.6,3.71-2.4,12.97-5.78,14.47-5.28.42.14-.71,1.21-2.53,2.38-5.07,3.25-10.37,9.33-13.31,15.25-2.28,4.59-2.55,5.61-2.57,9.51-.01,2.41.33,5.41.76,6.67.43,1.27.62,2.46.43,2.65Z"/>
      <circle class="cls-7" cx="235.35" cy="46.24" r="6.45"/>
    </g>
  </g>
</svg>